<svg width="720" height="218" xmlns="http://www.w3.org/2000/svg" xmlns:xlink="http://www.w3.org/1999/xlink" xml:space="preserve" overflow="hidden"><defs><clipPath id="clip0"><rect x="415" y="368" width="720" height="218"/></clipPath></defs><g clip-path="url(#clip0)" transform="translate(-415 -368)"><path d="M972.436 470.35C968.007 470.35 964.059 471.121 960.593 472.663 957.126 474.205 954.238 476.277 951.927 478.879 949.616 481.482 947.835 484.469 946.583 487.842 945.331 491.215 944.417 494.637 943.839 498.106L1000.17 498.106C999.781 495.022 999.203 492.035 998.433 489.143 997.663 486.252 996.459 483.698 994.822 481.482 993.185 479.265 991.308 477.337 989.19 475.699 987.071 474.061 984.616 472.76 981.824 471.796 979.031 470.832 975.902 470.35 972.436 470.35ZM707.597 437.679 752.37 437.968 752.659 586 707.597 586ZM660.856 437.679 705.629 437.968 705.918 586 660.856 586ZM485.77 434.21C493.088 434.21 499.828 435.029 505.99 436.667 512.152 438.306 517.785 440.522 522.888 443.317 527.992 446.112 532.373 449.437 536.031 453.292L536.609 453.292C540.461 449.437 544.938 446.112 550.041 443.317 555.144 440.522 560.825 438.306 567.084 436.667 573.342 435.029 580.13 434.21 587.448 434.21 602.084 434.21 614.697 437.005 625.288 442.594 635.88 448.184 644.064 455.846 649.841 465.58 655.619 475.314 658.507 486.252 658.507 498.395L658.507 586 613.445 586 613.445 499.841C613.445 495.022 612.242 490.637 609.835 486.686 607.427 482.734 604.202 479.506 600.158 477 596.114 474.494 591.492 473.242 586.293 473.241 581.093 473.242 576.423 474.494 572.283 477 568.143 479.506 564.917 482.734 562.606 486.686 560.295 490.637 559.14 495.022 559.14 499.841L559.14 586 514.367 586 514.367 499.841C514.367 495.022 513.163 490.637 510.756 486.686 508.349 482.734 505.075 479.506 500.935 477 496.795 474.494 492.125 473.242 486.926 473.241 481.726 473.242 477.056 474.494 472.916 477 468.776 479.506 465.55 482.734 463.239 486.686 460.928 490.637 459.773 495.022 459.773 499.841L459.773 586 415 586 415 498.395C415 486.252 417.84 475.314 423.521 465.58 429.202 455.846 437.338 448.184 447.93 442.594 458.521 437.005 471.135 434.21 485.77 434.21ZM1049.21 401.539 1094.27 401.539 1094.27 437.862 1134.71 437.968 1135 474.398 1094.27 474.291 1094.27 540.029C1094.27 542.342 1095.09 544.318 1096.73 545.956 1098.36 547.595 1100.34 548.414 1102.65 548.414L1134.71 548.703 1135 586 1092.83 586C1079.54 586 1069 582.145 1061.2 574.435 1053.4 566.725 1049.5 556.124 1049.5 542.631L1049.36 474.172 1036.76 474.139 1038.95 479.539C1041.98 488.592 1043.49 498.54 1043.49 509.382 1043.49 511.888 1043.35 514.827 1043.06 518.2 1042.77 521.574 1042.44 524.224 1042.05 526.151L944.994 526.151C946.15 531.163 948.364 535.403 951.638 538.873 954.912 542.342 959.052 544.896 964.059 546.535 969.066 548.173 974.65 548.992 980.813 548.992L1026.16 548.992 1026.16 586 982.257 586C965.503 586 950.771 582.868 938.062 576.604 925.352 570.339 915.483 561.665 908.454 550.582 906.697 547.812 905.159 544.929 903.841 541.936L902.301 537.582 902.301 586 857.528 586 857.528 501.865C857.528 496.661 856.277 491.89 853.773 487.553 851.27 483.216 847.852 479.747 843.519 477.145 839.186 474.543 834.323 473.242 828.931 473.241 823.347 473.242 818.388 474.543 814.055 477.145 809.722 479.747 806.304 483.216 803.801 487.553 801.297 491.89 800.046 496.661 800.046 501.865L800.046 586 755.273 586 755.273 500.708C755.273 488.372 758.258 477.193 764.227 467.17 770.197 457.147 778.718 449.148 789.791 443.173 800.864 437.197 814.007 434.21 829.22 434.21 844.626 434.21 857.769 437.197 868.649 443.173 879.53 449.148 887.858 457.147 893.635 467.17 896.524 472.181 898.69 477.482 900.135 483.072L900.974 487.512 901.86 484.337C903.439 479.349 905.493 474.687 908.021 470.35 914.76 458.785 923.763 449.871 935.029 443.606 946.294 437.342 958.763 434.21 972.436 434.21 988.034 434.21 1001.08 437.487 1011.58 444.04 1015.51 446.497 1019.09 449.287 1022.31 452.409L1025.09 455.307 1024.95 437.679 1049.28 437.743ZM683.387 368C690.512 368 696.675 370.651 701.874 375.951 703.174 377.276 704.311 378.659 705.286 380.098L706.758 382.809 708.229 380.098C709.204 378.659 710.341 377.276 711.641 375.951 716.84 370.651 723.003 368 730.128 368 737.253 368 743.415 370.651 748.615 375.951 753.814 381.252 756.414 387.468 756.414 394.6 756.414 401.731 753.814 407.899 748.615 413.104 743.415 418.308 737.253 420.91 730.128 420.91 723.003 420.91 716.84 418.308 711.641 413.104 710.341 411.803 709.204 410.441 708.229 409.02L706.758 406.336 705.286 409.02C704.311 410.441 703.174 411.803 701.874 413.104 696.675 418.308 690.512 420.91 683.387 420.91 676.262 420.91 670.1 418.308 664.9 413.104 659.701 407.899 657.101 401.731 657.101 394.6 657.101 387.468 659.701 381.252 664.9 375.951 670.1 370.651 676.262 368 683.387 368Z" fill-rule="evenodd"/></g></svg>