<?xml version="1.0" encoding="UTF-8" standalone="no"?>
<!DOCTYPE svg PUBLIC "-//W3C//DTD SVG 1.1//EN" "http://www.w3.org/Graphics/SVG/1.1/DTD/svg11.dtd">
<svg width="100%" height="100%" viewBox="0 0 25104 4725" version="1.1" xmlns="http://www.w3.org/2000/svg" xmlns:xlink="http://www.w3.org/1999/xlink" xml:space="preserve" xmlns:serif="http://www.serif.com/" style="fill-rule:evenodd;clip-rule:evenodd;stroke-linejoin:round;stroke-miterlimit:2;">
    <g transform="matrix(1.207361,0,0,1.207361,-1511.536198,-489.829099)">
        <g transform="matrix(1,0,0,1,2296.32619,276.44652)">
            <g transform="matrix(1.705263,0,0,1,-4267.894758,0)">
                <path d="M3433.089,129.256L1890.275,129.256L1890.275,4037.394L2956.13,4037.394L2956.13,1857.013L3515.826,4037.394L4377.272,4037.394L4975.903,1905.682L4975.903,4037.394L6051.493,4037.394L6051.493,129.256L4513.545,129.256L3953.849,2192.83L3433.089,129.256Z" style="fill:white;fill-rule:nonzero;"/>
            </g>
            <rect x="6178.033" y="129.256" width="1148.593" height="3908.138" style="fill:white;fill-rule:nonzero;"/>
            <rect x="7453.166" y="129.256" width="1148.593" height="3908.138" style="fill:white;fill-rule:nonzero;"/>
            <path d="M8728.299,129.256L8728.299,4037.394L9876.893,4037.394L9876.893,2076.024L11040.087,4037.394L12276.285,4037.394L12276.285,129.256L11074.156,129.256L11074.156,2149.028L9872.026,129.256L8728.299,129.256Z" style="fill:white;fill-rule:nonzero;"/>
            <path d="M15663.663,129.256L12402.825,129.256L12402.825,4042.261L15702.598,4037.394L15702.598,3044.542L13551.419,3044.542L13551.419,2509.18L15332.712,2509.18L15332.712,1608.8L13551.419,1608.8L13551.419,1131.842L15663.663,1131.842L15663.663,129.256Z" style="fill:white;fill-rule:nonzero;"/>
        </g>
        <g transform="matrix(-1.173901,0,0,1.173901,20087.183021,2362.204724)">
            <g transform="matrix(1,0,0,1,-1666.666667,-1666.666667)">
                <clipPath id="_clip1">
                    <rect x="0" y="0" width="3333.333" height="3333.333"/>
                </clipPath>
                <g clip-path="url(#_clip1)">
                    <g transform="matrix(21.665843,0,0,21.665843,0,0)">
                        <path d="M153.852,39.973L68.193,39.9L153.852,125.608L125.608,153.852L40,68.59L39.958,153.852L0,153.852L0,0L153.852,0L153.852,39.973Z" style="fill:white;"/>
                    </g>
                </g>
            </g>
        </g>
    </g>
</svg>
